<?xml version="1.0" encoding="UTF-8" standalone="no"?>
<!-- Created with Inkscape (http://www.inkscape.org/) -->

<svg
   xmlns:dc="http://purl.org/dc/elements/1.1/"
   xmlns:cc="http://creativecommons.org/ns#"
   xmlns:rdf="http://www.w3.org/1999/02/22-rdf-syntax-ns#"
   xmlns:svg="http://www.w3.org/2000/svg"
   xmlns="http://www.w3.org/2000/svg"
   xmlns:sodipodi="http://sodipodi.sourceforge.net/DTD/sodipodi-0.dtd"
   xmlns:inkscape="http://www.inkscape.org/namespaces/inkscape"
   width="200mm"
   height="200mm"
   viewBox="0 0 200 200"
   version="1.1"
   id="svg8"
   inkscape:version="0.92.3 (2405546, 2018-03-11)"
   sodipodi:docname="private_mode.svg">
  <defs
     id="defs2" />
  <sodipodi:namedview
     id="base"
     pagecolor="#ffffff"
     bordercolor="#666666"
     borderopacity="1.0"
     inkscape:pageopacity="0.0"
     inkscape:pageshadow="2"
     inkscape:zoom="0.49497475"
     inkscape:cx="170.64653"
     inkscape:cy="617.50507"
     inkscape:document-units="mm"
     inkscape:current-layer="layer1"
     showgrid="false"
     inkscape:window-width="1920"
     inkscape:window-height="1017"
     inkscape:window-x="-8"
     inkscape:window-y="-8"
     inkscape:window-maximized="1" />
  <metadata
     id="metadata5">
    <rdf:RDF>
      <cc:Work
         rdf:about="">
        <dc:format>image/svg+xml</dc:format>
        <dc:type
           rdf:resource="http://purl.org/dc/dcmitype/StillImage" />
        <dc:title></dc:title>
      </cc:Work>
    </rdf:RDF>
  </metadata>
  <g
     inkscape:label="Ebene 1"
     inkscape:groupmode="layer"
     id="layer1"
     transform="translate(0,-97)">
    <path
       style="fill:#000000;stroke-width:1"
       d="m 31.32679,267.06045 c -1.247002,-0.3508 -1.280609,-0.82508 -0.325858,-4.59868 1.398625,-5.52801 4.990894,-17.53877 5.617329,-18.78157 0.720952,-1.4303 2.611527,-4.10348 4.363911,-6.17033 1.837875,-2.16769 2.058828,-2.61264 1.667827,-3.3586 -0.171619,-0.32743 -5.216189,-8.27485 -11.210153,-17.66094 -5.993964,-9.38608 -11.043552,-17.338 -11.221306,-17.67092 -0.427174,-0.80006 -0.140889,-1.61432 0.676894,-1.92524 0.418219,-0.15901 3.640315,-0.15494 8.774755,0.0111 11.796625,0.38145 11.685728,0.38408 11.685728,-0.27713 0,-0.30121 -0.341358,-1.04535 -0.758574,-1.65365 -1.711562,-2.49546 -3.124687,-6.01544 -3.75666,-9.35752 -0.180409,-0.95406 -0.266375,-3.11393 -0.206073,-5.1775 0.09887,-3.38325 0.14294,-3.62075 0.991972,-5.34538 1.129733,-2.29481 4.554155,-5.79704 7.708739,-7.88388 2.848616,-1.88444 8.541968,-4.63911 12.160179,-5.88358 1.527969,-0.52554 2.897188,-1.07421 3.042708,-1.21927 0.16627,-0.16573 0.313741,-5.44504 0.396875,-14.20756 l 0.132292,-13.94382 0.628724,-1.39099 c 1.24447,-2.75327 3.317436,-3.76838 7.695428,-3.76838 4.363241,0 9.395672,0.74163 18.001892,2.65294 8.29993,1.84329 11.37106,2.19377 19.446871,2.21928 3.92906,0.0124 10.00125,-0.0108 13.49375,-0.0515 5.86288,-0.0684 6.48193,-0.0312 8.06979,0.48538 2.63235,0.85636 4.85342,2.0344 5.94683,3.15415 1.56313,1.60079 1.73268,2.73726 1.94176,13.01517 0.0997,4.89923 0.25527,8.98174 0.3458,9.07224 0.0905,0.0905 1.69788,0.56926 3.57188,1.06389 10.86271,2.86716 18.46528,7.22118 20.72708,11.87046 4.57462,9.40348 -0.56864,19.40399 -14.27644,27.759 -0.90458,0.55135 -1.58253,1.14054 -1.52219,1.32292 0.12287,0.37134 4.46465,0.57609 19.57574,0.92316 8.13768,0.18691 9.24245,0.26288 9.64263,0.66306 0.41563,0.41563 0.41872,0.52153 0.0384,1.31708 -0.22744,0.4758 -5.861,7.23494 -12.51903,15.0203 -13.99884,16.36912 -14.23826,16.66875 -13.31918,16.66875 0.17026,0 2.57056,-1.49886 5.33399,-3.3308 2.76343,-1.83193 5.39687,-3.39123 5.85209,-3.4651 0.6825,-0.11076 1.07903,0.0644 2.26077,0.99849 8.31161,6.56995 14.72302,18.74096 17.45164,33.12907 0.70107,3.69677 0.6982,4.72408 -0.015,5.36952 -0.54463,0.49289 -2.17976,0.50493 -74.01719,0.54475 -40.403135,0.0224 -73.746637,-0.0398 -74.096667,-0.13831 z m 72.60308,-43.55983 c 5.42719,-1.13945 9.96572,-5.31167 12.21941,-11.23317 0.95421,-2.50716 1.08541,-3.5782 0.4674,-3.81535 -0.22554,-0.0865 -3.23187,0.30888 -6.68073,0.87873 -8.78191,1.45103 -10.905581,1.64597 -18.643371,1.71131 -4.48116,0.0378 -6.91498,0.1561 -7.10406,0.34518 -0.60352,0.60352 1.283,5.24345 3.1059,7.63903 1.56011,2.05024 4.91085,4.00108 7.9042,4.60191 1.78621,0.35852 6.762141,0.28579 8.731251,-0.12764 z m -36.056406,-4.6272 c 0.6878,-0.26134 2.006999,-1.01496 2.931554,-1.67471 1.818047,-1.29732 5.740481,-5.29959 5.740481,-5.8573 0,-0.63321 -0.64945,-0.86866 -2.910416,-1.05513 -5.321371,-0.43886 -12.891328,-2.19919 -17.82133,-4.14419 -2.94775,-1.16296 -3.345336,-1.22776 -3.345336,-0.54528 0,1.21234 2.151999,5.71176 4.047715,8.463 3.371733,4.89335 7.047436,6.45124 11.357332,4.81361 z m 34.204326,-30.70165 c 9.26276,-0.8666 18.14218,-3.1198 24.7637,-6.28392 3.03726,-1.45137 3.91746,-2.02434 3.59901,-2.34279 -0.21574,-0.21574 -1.60403,0.0461 -7.77505,1.46614 -7.10266,1.63448 -15.27027,2.76308 -22.30745,3.08245 -9.659961,0.43839 -21.476541,-1.82619 -33.227608,-6.36787 -3.070627,-1.18677 -3.814059,-1.29841 -3.814059,-0.57275 0,0.92373 4.48404,4.3949 7.904954,6.11937 7.731792,3.89756 20.275762,5.88928 30.856503,4.89937 z"
       id="path826"
       inkscape:connector-curvature="0" />
  </g>
</svg>
